#Comment line ignore any data following # character 
#Hierarchical Translation and Rotation (.htr) file 
[Header]	
#Header keywords are followed by a single value 
FileType HTR		#Single word string
DataType HTRS		#Translation followed by rotation and scale data
FileVersion 1		#integer
NumSegments 84		#integer
NumFrames 2		#integer
DataFrameRate 30		#integer, data frame rate in this file
EulerRotationOrder ZYX
CalibrationUnits mm
RotationUnits Degrees
GlobalAxisofGravity Y
BoneLengthAxis Y
ScaleFactor 1.00
[SegmentNames&Hierarchy]
#CHILD	PARENT
MASTER GLOBAL
root MASTER
chest root
L_mid_tent01 root
R_mid_tent01 root
spine01 root
Bip01_Neck chest
L_humerus chest
R_humerus chest
weapon_bone chest
Bip01_Head Bip01_Neck
eye_left_bone Bip01_Head
eye_right_bone Bip01_Head
L_forearm L_humerus
L_front_hand L_forearm
L_weapon_bone L_forearm
L_front_hand01_01 L_front_hand
L_front_hand02_01 L_front_hand
L_front_hand03_01 L_front_hand
L_front_hand01_02 L_front_hand01_01
L_front_hand02_02 L_front_hand02_01
L_front_hand03_02 L_front_hand03_01
R_forearm R_humerus
R_front_hand R_forearm
R_weapon_bone R_forearm
R_front_hand01_01 R_front_hand
R_front_hand02_01 R_front_hand
R_front_hand03_01 R_front_hand
R_front_hand01_02 R_front_hand01_01
R_front_hand02_02 R_front_hand02_01
R_front_hand03_02 R_front_hand03_01
null_rope01_connect L_mid_tent01
Rope1_Seg01 null_rope01_connect
Rope1_Seg02 Rope1_Seg01
Rope1_Seg03 Rope1_Seg02
Rope1_Seg04 Rope1_Seg03
Rope1_Seg05 Rope1_Seg04
Rope1_Seg06 Rope1_Seg05
Rope1_Seg07 Rope1_Seg06
Rope1_Seg09 Rope1_Seg07
L_mid_hand01 Rope1_Seg09
L_mid_hand02 Rope1_Seg09
L_mid_hand03 Rope1_Seg09
null_rope02_connect R_mid_tent01
Rope2_Seg01 null_rope02_connect
Rope2_Seg02 Rope2_Seg01
Rope2_Seg03 Rope2_Seg02
Rope2_Seg04 Rope2_Seg03
Rope2_Seg05 Rope2_Seg04
Rope2_Seg06 Rope2_Seg05
Rope2_Seg07 Rope2_Seg06
Rope2_Seg09 Rope2_Seg07
R_mid_hand01 Rope2_Seg09
R_mid_hand02 Rope2_Seg09
R_mid_hand03 Rope2_Seg09
spine02 spine01
spine03 spine02
pelvis spine03
null_rope03_connect pelvis
null_rope04_connect pelvis
Rope3_Seg01 null_rope03_connect
Rope3_Seg02 Rope3_Seg01
Rope3_Seg03 Rope3_Seg02
Rope3_Seg04 Rope3_Seg03
Rope3_Seg05 Rope3_Seg04
Rope3_Seg06 Rope3_Seg05
Rope3_Seg07 Rope3_Seg06
Rope3_Seg08 Rope3_Seg07
Rope3_Seg09 Rope3_Seg08
R_rear_hand01 Rope3_Seg09
R_rear_hand02 Rope3_Seg09
R_rear_hand03 Rope3_Seg09
Rope4_Seg01 null_rope04_connect
Rope4_Seg02 Rope4_Seg01
Rope4_Seg03 Rope4_Seg02
Rope4_Seg04 Rope4_Seg03
Rope4_Seg05 Rope4_Seg04
Rope4_Seg06 Rope4_Seg05
Rope4_Seg07 Rope4_Seg06
Rope4_Seg08 Rope4_Seg07
Rope4_Seg09 Rope4_Seg08
L_rear_hand01 Rope4_Seg09
L_rear_hand02 Rope4_Seg09
L_rear_hand03 Rope4_Seg09
[BasePosition]
#SegmentName Tx, Ty, Tz, Rx, Ry, Rz, BoneLength
MASTER 0.000000 0.000000 0.000000 -90.000000 0.000000 0.000000 10.000000 
root 0.000000 0.000000 0.000000 0.000000 0.000000 0.000000 10.000000 
chest 0.000000 0.000000 0.000000 0.000000 0.000000 0.000000 10.000000 
L_mid_tent01 0.000000 0.000000 0.000000 0.000000 0.000000 0.000000 10.000000 
R_mid_tent01 0.000000 0.000000 0.000000 0.000000 0.000000 0.000000 10.000000 
spine01 0.000000 0.000000 0.000000 0.000000 0.000000 0.000000 10.000000 
Bip01_Neck 0.000000 0.000000 0.000000 0.000000 0.000000 0.000000 10.000000 
L_humerus 0.000000 0.000000 0.000000 0.000000 0.000000 0.000000 10.000000 
R_humerus 0.000000 0.000000 0.000000 0.000000 0.000000 0.000000 10.000000 
weapon_bone 0.000000 0.000000 0.000000 0.000000 0.000000 0.000000 10.000000 
Bip01_Head 0.000000 0.000000 0.000000 0.000000 0.000000 0.000000 10.000000 
eye_left_bone 0.000000 0.000000 0.000000 0.000000 0.000000 0.000000 10.000000 
eye_right_bone 0.000000 0.000000 0.000000 0.000000 0.000000 0.000000 10.000000 
L_forearm 0.000000 0.000000 0.000000 0.000000 0.000000 0.000000 10.000000 
L_front_hand 0.000000 0.000000 0.000000 0.000000 0.000000 0.000000 10.000000 
L_weapon_bone 0.000000 0.000000 0.000000 0.000000 0.000000 0.000000 10.000000 
L_front_hand01_01 0.000000 0.000000 0.000000 0.000000 0.000000 0.000000 10.000000 
L_front_hand02_01 0.000000 0.000000 0.000000 0.000000 0.000000 0.000000 10.000000 
L_front_hand03_01 0.000000 0.000000 0.000000 0.000000 0.000000 0.000000 10.000000 
L_front_hand01_02 0.000000 0.000000 0.000000 0.000000 0.000000 0.000000 10.000000 
L_front_hand02_02 0.000000 0.000000 0.000000 0.000000 0.000000 0.000000 10.000000 
L_front_hand03_02 0.000000 0.000000 0.000000 0.000000 0.000000 0.000000 10.000000 
R_forearm 0.000000 0.000000 0.000000 0.000000 0.000000 0.000000 10.000000 
R_front_hand 0.000000 0.000000 0.000000 0.000000 0.000000 0.000000 10.000000 
R_weapon_bone 0.000000 0.000000 0.000000 0.000000 0.000000 0.000000 10.000000 
R_front_hand01_01 0.000000 0.000000 0.000000 0.000000 0.000000 0.000000 10.000000 
R_front_hand02_01 0.000000 0.000000 0.000000 0.000000 0.000000 0.000000 10.000000 
R_front_hand03_01 0.000000 0.000000 0.000000 0.000000 0.000000 0.000000 10.000000 
R_front_hand01_02 0.000000 0.000000 0.000000 0.000000 0.000000 0.000000 10.000000 
R_front_hand02_02 0.000000 0.000000 0.000000 0.000000 0.000000 0.000000 10.000000 
R_front_hand03_02 0.000000 0.000000 0.000000 0.000000 0.000000 0.000000 10.000000 
null_rope01_connect 0.000000 0.000000 0.000000 0.000000 0.000000 0.000000 10.000000 
Rope1_Seg01 0.000000 0.000000 0.000000 0.000000 0.000000 0.000000 10.000000 
Rope1_Seg02 0.000000 0.000000 0.000000 0.000000 0.000000 0.000000 10.000000 
Rope1_Seg03 0.000000 0.000000 0.000000 0.000000 0.000000 0.000000 10.000000 
Rope1_Seg04 0.000000 0.000000 0.000000 0.000000 0.000000 0.000000 10.000000 
Rope1_Seg05 0.000000 0.000000 0.000000 0.000000 0.000000 0.000000 10.000000 
Rope1_Seg06 0.000000 0.000000 0.000000 0.000000 0.000000 0.000000 10.000000 
Rope1_Seg07 0.000000 0.000000 0.000000 0.000000 0.000000 0.000000 10.000000 
Rope1_Seg09 0.000000 0.000000 0.000000 0.000000 0.000000 0.000000 10.000000 
L_mid_hand01 0.000000 0.000000 0.000000 0.000000 0.000000 0.000000 10.000000 
L_mid_hand02 0.000000 0.000000 0.000000 0.000000 0.000000 0.000000 10.000000 
L_mid_hand03 0.000000 0.000000 0.000000 0.000000 0.000000 0.000000 10.000000 
null_rope02_connect 0.000000 0.000000 0.000000 0.000000 0.000000 0.000000 10.000000 
Rope2_Seg01 0.000000 0.000000 0.000000 0.000000 0.000000 0.000000 10.000000 
Rope2_Seg02 0.000000 0.000000 0.000000 0.000000 0.000000 0.000000 10.000000 
Rope2_Seg03 0.000000 0.000000 0.000000 0.000000 0.000000 0.000000 10.000000 
Rope2_Seg04 0.000000 0.000000 0.000000 0.000000 0.000000 0.000000 10.000000 
Rope2_Seg05 0.000000 0.000000 0.000000 0.000000 0.000000 0.000000 10.000000 
Rope2_Seg06 0.000000 0.000000 0.000000 0.000000 0.000000 0.000000 10.000000 
Rope2_Seg07 0.000000 0.000000 0.000000 0.000000 0.000000 0.000000 10.000000 
Rope2_Seg09 0.000000 0.000000 0.000000 0.000000 0.000000 0.000000 10.000000 
R_mid_hand01 0.000000 0.000000 0.000000 0.000000 0.000000 0.000000 10.000000 
R_mid_hand02 0.000000 0.000000 0.000000 0.000000 0.000000 0.000000 10.000000 
R_mid_hand03 0.000000 0.000000 0.000000 0.000000 0.000000 0.000000 10.000000 
spine02 0.000000 0.000000 0.000000 0.000000 0.000000 0.000000 10.000000 
spine03 0.000000 0.000000 0.000000 0.000000 0.000000 0.000000 10.000000 
pelvis 0.000000 0.000000 0.000000 0.000000 0.000000 0.000000 10.000000 
null_rope03_connect 0.000000 0.000000 0.000000 0.000000 0.000000 0.000000 10.000000 
null_rope04_connect 0.000000 0.000000 0.000000 0.000000 0.000000 0.000000 10.000000 
Rope3_Seg01 0.000000 0.000000 0.000000 0.000000 0.000000 0.000000 10.000000 
Rope3_Seg02 0.000000 0.000000 0.000000 0.000000 0.000000 0.000000 10.000000 
Rope3_Seg03 0.000000 0.000000 0.000000 0.000000 0.000000 0.000000 10.000000 
Rope3_Seg04 0.000000 0.000000 0.000000 0.000000 0.000000 0.000000 10.000000 
Rope3_Seg05 0.000000 0.000000 0.000000 0.000000 0.000000 0.000000 10.000000 
Rope3_Seg06 0.000000 0.000000 0.000000 0.000000 0.000000 0.000000 10.000000 
Rope3_Seg07 0.000000 0.000000 0.000000 0.000000 0.000000 0.000000 10.000000 
Rope3_Seg08 0.000000 0.000000 0.000000 0.000000 0.000000 0.000000 10.000000 
Rope3_Seg09 0.000000 0.000000 0.000000 0.000000 0.000000 0.000000 10.000000 
R_rear_hand01 0.000000 0.000000 0.000000 0.000000 0.000000 0.000000 10.000000 
R_rear_hand02 0.000000 0.000000 0.000000 0.000000 0.000000 0.000000 10.000000 
R_rear_hand03 0.000000 0.000000 0.000000 0.000000 0.000000 0.000000 10.000000 
Rope4_Seg01 0.000000 0.000000 0.000000 0.000000 0.000000 0.000000 10.000000 
Rope4_Seg02 0.000000 0.000000 0.000000 0.000000 0.000000 0.000000 10.000000 
Rope4_Seg03 0.000000 0.000000 0.000000 0.000000 0.000000 0.000000 10.000000 
Rope4_Seg04 0.000000 0.000000 0.000000 0.000000 0.000000 0.000000 10.000000 
Rope4_Seg05 0.000000 0.000000 0.000000 0.000000 0.000000 0.000000 10.000000 
Rope4_Seg06 0.000000 0.000000 0.000000 0.000000 0.000000 0.000000 10.000000 
Rope4_Seg07 0.000000 0.000000 0.000000 0.000000 0.000000 0.000000 10.000000 
Rope4_Seg08 0.000000 0.000000 0.000000 0.000000 0.000000 0.000000 10.000000 
Rope4_Seg09 0.000000 0.000000 0.000000 0.000000 0.000000 0.000000 10.000000 
L_rear_hand01 0.000000 0.000000 0.000000 0.000000 0.000000 0.000000 10.000000 
L_rear_hand02 0.000000 0.000000 0.000000 0.000000 0.000000 0.000000 10.000000 
L_rear_hand03 0.000000 0.000000 0.000000 0.000000 0.000000 0.000000 10.000000 
#Beginning of Data. Separated by tabs
#Fr	Tx	Ty	Tz	Rx	Ry	Rz	SF
[MASTER]
10 0.000000 0.000000 0.000000 0.001660 0.001660 0.001660 0.000000
11 0.000000 0.000000 0.000000 0.001660 0.001660 0.001660 0.000000
[root]
10 -125.971970 -62.822140 890.395874 -86.123024 -3.213730 -90.141678 901.454590
11 -120.185600 -62.822140 796.797607 -85.686226 -2.805699 -90.445068 808.255920
[chest]
10 -75.980896 51.836926 -63.010448 -0.678958 4.533751 177.065704 111.492058
11 -76.258606 49.040070 -60.959526 -0.629082 3.874879 175.556870 109.253685
[L_mid_tent01]
10 26.896563 22.408375 -247.328934 5.914292 12.901526 98.348335 249.794250
11 26.949265 22.378181 -247.667603 5.268032 12.420591 98.021957 250.132523
[R_mid_tent01]
10 23.228794 24.509907 226.238495 175.614258 -33.190647 79.631485 228.744751
11 23.228794 24.509907 226.238495 170.075394 -28.930639 92.085564 228.744751
[spine01]
10 -0.361383 -0.195265 0.000000 -0.000001 -0.000007 22.052340 0.410763
11 -0.361383 -0.195265 0.000000 -0.000001 -0.000007 22.052340 0.410763
[Bip01_Neck]
10 165.484543 71.581718 0.000119 175.896118 1.177290 24.871183 180.302734
11 165.484543 71.581718 0.000119 175.896118 1.177290 24.871181 180.302734
[L_humerus]
10 -13.983130 -135.272980 -120.471481 -33.454144 17.777962 -139.301727 181.680161
11 -13.983130 -135.272980 -120.471481 -24.576090 17.608528 -130.655777 181.680161
[R_humerus]
10 -13.983309 -135.273102 125.287651 41.545948 -24.670534 -142.126404 184.909012
11 -13.983309 -135.273102 125.287651 30.868105 -25.391457 -131.860672 184.909012
[weapon_bone]
10 235.964890 -300.705902 0.000000 0.000000 -89.951546 -128.212341 382.234833
11 235.964890 -300.705902 0.000000 0.000000 -89.951546 -128.212341 382.234833
[Bip01_Head]
10 173.837311 105.006233 6.407594 3.355109 -4.840895 -25.788372 203.191467
11 173.963837 110.969498 5.992889 3.819641 -4.190270 -26.241035 206.430511
[eye_left_bone]
10 -24.626970 125.451866 -64.772606 0.000000 -90.000000 -99.840431 143.318359
11 -24.626970 125.451866 -64.772606 0.000000 -90.000000 -99.840431 143.318359
[eye_right_bone]
10 -24.626970 125.451866 64.327362 0.000000 -89.960434 80.159386 143.117676
11 -24.626970 125.451866 64.327362 0.000000 -89.960434 80.159386 143.117676
[L_forearm]
10 322.776093 0.000000 -0.000119 0.000847 -0.002189 -132.326904 322.776093
11 322.776093 0.000000 -0.000119 0.000929 -0.002156 -136.633896 322.776093
[L_front_hand]
10 241.149185 -0.042021 -3.300071 -169.369766 0.190242 -40.861729 241.171753
11 241.149185 -0.042021 -3.300071 -168.921478 -0.454418 -34.216084 241.171753
[L_weapon_bone]
10 156.183838 0.000000 0.000000 0.000014 0.000007 0.000001 156.183838
11 156.183838 0.000000 0.000000 0.000014 0.000007 0.000001 156.183838
[L_front_hand01_01]
10 86.095154 20.947098 -0.655860 0.401344 -0.444013 -4.162663 88.609184
11 86.095154 20.947098 -0.655860 0.404284 -0.443495 -4.283926 88.609184
[L_front_hand02_01]
10 86.935165 -11.437475 24.513514 116.948578 3.221920 1.287230 91.046425
11 86.935165 -11.437475 24.513514 116.952072 3.328948 1.343599 91.046425
[L_front_hand03_01]
10 86.637497 -14.123976 -20.424902 -118.404114 -4.258415 -0.371168 90.126129
11 86.637497 -14.123976 -20.424902 -118.409485 -4.364775 -0.313373 90.126129
[L_front_hand01_02]
10 71.020905 -0.000179 0.000030 0.001534 0.001777 -8.378848 71.020905
11 71.020905 -0.000179 0.000030 0.001534 0.001777 -8.378850 71.020905
[L_front_hand02_02]
10 71.020927 -0.000119 0.000060 0.001534 0.001777 -8.378848 71.020927
11 71.020927 -0.000119 0.000060 0.001534 0.001777 -8.378850 71.020927
[L_front_hand03_02]
10 71.020905 -0.000060 0.000060 0.001534 0.001777 -8.378848 71.020905
11 71.020905 -0.000060 0.000060 0.001534 0.001777 -8.378850 71.020905
[R_forearm]
10 322.776428 -0.000060 0.000030 0.161160 0.137179 -131.552292 322.776428
11 322.776428 -0.000060 0.000030 0.147551 0.152440 -136.633606 322.776428
[R_front_hand]
10 238.847015 -0.006795 2.210259 -11.818106 -0.568998 -48.653809 238.857239
11 238.847015 -0.006795 2.210259 -12.343200 0.260923 -41.141926 238.857239
[R_weapon_bone]
10 155.664093 0.002503 -0.000030 0.003487 0.001180 -90.988930 155.664078
11 155.664093 0.002503 -0.000030 0.003487 0.001180 -90.988930 155.664078
[R_front_hand01_01]
10 87.624611 14.231146 22.918642 -116.952972 3.182828 -1.162250 91.683487
11 87.624611 14.231146 22.918642 -116.953262 3.258310 -1.200155 91.683487
[R_front_hand02_01]
10 89.356956 14.367283 -19.491137 118.408150 -3.938160 0.781151 92.579636
11 89.356956 14.367283 -19.491137 118.411453 -4.016696 0.739519 92.579636
[R_front_hand03_01]
10 87.286232 -22.307278 -0.143439 -0.387258 -0.232650 3.880634 90.091743
11 87.286232 -22.307278 -0.143439 -0.387429 -0.232366 3.964760 90.091743
[R_front_hand01_02]
10 71.020905 0.000060 0.000119 0.001777 0.001534 8.377220 71.020905
11 71.020905 0.000060 0.000119 0.001777 0.001534 8.377220 71.020905
[R_front_hand02_02]
10 71.020844 -0.000030 -0.000119 0.001777 0.001534 8.377220 71.020836
11 71.020844 -0.000030 -0.000119 0.001777 0.001534 8.377220 71.020836
[R_front_hand03_02]
10 71.020905 0.000000 0.000030 0.001777 0.001534 8.377220 71.020905
11 71.020905 0.000000 0.000030 0.001777 0.001534 8.377220 71.020905
[null_rope01_connect]
10 328.732483 0.000000 -0.000238 -153.638412 -79.422516 149.023453 328.732483
11 328.732483 0.000000 -0.000238 -152.808258 -80.421371 148.007172 328.732483
[Rope1_Seg01]
10 -0.000032 0.000027 0.000107 119.501945 -20.310844 132.813980 0.000115
11 -0.000032 0.000025 0.000102 123.443008 -27.348860 130.180161 0.000110
[Rope1_Seg02]
10 139.999863 -0.000179 0.000000 -3.468063 -6.717285 -5.799764 139.999863
11 139.999863 -0.000179 0.000000 -3.790299 -6.162867 -4.523155 139.999863
[Rope1_Seg03]
10 139.999924 0.000060 -0.000060 -4.870945 -9.798009 -9.823888 139.999924
11 139.999924 0.000060 -0.000060 -5.900841 -9.403392 -8.042169 139.999924
[Rope1_Seg04]
10 139.999924 -0.000060 -0.000119 -5.058879 -11.579103 -15.223315 139.999924
11 139.999924 -0.000060 -0.000119 -7.618260 -12.817273 -13.131591 139.999924
[Rope1_Seg05]
10 139.999832 0.000119 -0.000060 -3.308082 -15.774037 -22.688807 139.999832
11 139.999832 0.000119 -0.000060 -6.679908 -14.198347 -23.275734 139.999832
[Rope1_Seg06]
10 139.999954 0.000119 -0.000060 -1.066850 -7.034500 -11.503052 139.999954
11 139.999954 0.000119 -0.000060 -2.152585 -6.474833 -18.452806 139.999954
[Rope1_Seg07]
10 139.999985 0.000060 0.000000 -0.336168 -2.870880 -5.290321 139.999985
11 139.999985 0.000060 0.000000 -0.250977 -2.760352 -8.648103 139.999985
[Rope1_Seg09]
10 121.602913 0.000119 -0.000089 -89.793175 -1.359789 0.847147 121.602913
11 121.602913 0.000119 -0.000089 -89.793175 -1.359789 0.847147 121.602913
[L_mid_hand01]
10 103.859421 1.038730 8.195221 125.841331 -64.954613 -33.733833 104.187431
11 103.859421 1.038730 8.195221 117.760483 -57.838734 -24.549900 104.187431
[L_mid_hand02]
10 105.572853 -4.139662 -10.864139 -165.878403 42.678875 -69.042610 106.211075
11 105.572853 -4.139662 -10.864139 -158.841904 40.137390 -58.422783 106.211075
[L_mid_hand03]
10 104.641464 17.579376 -3.913581 -7.069824 17.430201 71.408928 106.179977
11 104.641464 17.579376 -3.913581 -9.570477 16.216415 62.777409 106.179977
[null_rope02_connect]
10 328.732849 0.000179 -0.000119 -160.269424 52.907089 4.427465 328.732849
11 328.732849 0.000179 -0.000119 -161.967545 55.559589 14.252165 328.732849
[Rope2_Seg01]
10 0.000044 0.000037 0.000000 -38.224251 1.086156 94.543243 0.000058
11 0.000038 0.000029 0.000000 -54.692360 -15.710986 90.869316 0.000048
[Rope2_Seg02]
10 139.999741 -0.000060 -0.000119 1.461905 6.864358 -1.015635 139.999756
11 139.999741 -0.000060 -0.000119 5.180318 8.822167 2.472240 139.999756
[Rope2_Seg03]
10 140.000107 0.000030 0.000000 1.345848 10.191598 -1.800113 140.000107
11 140.000107 0.000030 0.000000 5.207107 14.199180 2.676280 140.000107
[Rope2_Seg04]
10 139.999802 0.000000 -0.000060 -0.537532 16.819370 -6.350292 139.999802
11 139.999802 0.000000 -0.000060 2.236266 23.071941 -0.602027 139.999802
[Rope2_Seg05]
10 139.999985 -0.000060 0.000119 -0.385940 18.395573 -2.115077 139.999985
11 139.999985 -0.000060 0.000119 -0.051151 18.682055 3.793175 139.999985
[Rope2_Seg06]
10 139.999893 -0.000030 -0.000119 -1.928106 10.669445 10.503152 139.999893
11 139.999893 -0.000030 -0.000119 -2.953985 13.182188 12.877204 139.999893
[Rope2_Seg07]
10 139.999893 0.000060 -0.000060 -2.431351 8.588655 6.629181 139.999893
11 139.999893 0.000060 -0.000060 -4.238613 11.545093 9.818696 139.999893
[Rope2_Seg09]
10 121.338966 0.000089 -0.000060 33.793236 -1.359788 -0.847141 121.338966
11 121.338966 0.000089 -0.000060 33.793236 -1.359788 -0.847141 121.338966
[R_mid_hand01]
10 104.680779 11.144459 -10.335981 -22.312534 43.037552 61.708103 105.778534
11 104.680779 11.144459 -10.335981 -25.933409 41.244480 56.312584 105.778534
[R_mid_hand02]
10 104.070427 2.443552 8.231699 57.629852 -62.394913 29.859867 104.424065
11 104.070427 2.443552 8.231699 61.557682 -58.613529 25.351759 104.424065
[R_mid_hand03]
10 106.028137 -11.221827 -5.996406 -175.277725 15.107718 -69.704247 106.788818
11 106.028137 -11.221827 -5.996406 -174.117188 14.705107 -65.188774 106.788818
[spine02]
10 129.756927 0.001550 0.000119 -0.108116 -4.324798 -6.406828 129.756927
11 129.756927 0.001550 0.000119 -0.123304 -4.310117 -6.189419 129.756927
[spine03]
10 78.676315 0.076370 -4.288555 0.186771 6.820585 -7.965381 78.793152
11 78.669189 0.077609 -4.358134 0.210262 6.603757 -7.675574 78.789856
[pelvis]
10 169.435242 0.051022 0.000000 0.027445 2.194186 -2.959520 169.435257
11 169.435242 0.051022 0.000000 0.028572 2.035730 -2.754945 169.435257
[null_rope03_connect]
10 -1.257226 -2.466202 137.391083 -47.495968 -83.623909 135.794891 137.418976
11 -1.257226 -2.466202 137.391083 -44.831501 -83.406021 132.025925 137.418976
[null_rope04_connect]
10 -1.259640 -2.480268 -137.844437 -47.495968 -83.623909 135.794891 137.872513
11 -1.259640 -2.480268 -137.844437 -44.831501 -83.406021 132.025925 137.872513
[Rope3_Seg01]
10 0.000000 0.000000 0.000000 -85.281883 25.218380 -8.696566 0.000000
11 0.000000 0.000000 0.000000 -95.663498 4.324567 -4.644032 0.000000
[Rope3_Seg02]
10 139.999924 -0.000119 0.000060 -15.471891 21.202358 -3.885843 139.999924
11 139.999924 -0.000119 0.000060 -8.475255 19.808369 12.543324 139.999924
[Rope3_Seg03]
10 139.999924 -0.000119 0.000119 -9.306734 13.698415 -5.957605 139.999924
11 139.999924 -0.000119 0.000119 -4.993830 12.032666 4.035851 139.999924
[Rope3_Seg04]
10 139.999924 0.000119 0.000000 -1.103528 5.721189 3.760329 139.999924
11 139.999924 0.000119 0.000000 0.172660 4.972534 7.127391 139.999924
[Rope3_Seg05]
10 139.999924 -0.000238 0.000060 2.763583 0.106882 19.169603 139.999924
11 139.999924 -0.000238 0.000060 2.759991 0.996503 20.462343 139.999924
[Rope3_Seg06]
10 139.999893 -0.000119 -0.000060 -0.146512 0.251358 21.709066 139.999893
11 139.999893 -0.000119 -0.000060 -0.370784 1.178797 22.311419 139.999893
[Rope3_Seg07]
10 139.999771 0.000060 -0.000119 -1.155132 1.002667 11.485840 139.999771
11 139.999771 0.000060 -0.000119 -1.322335 1.190577 11.253917 139.999771
[Rope3_Seg08]
10 139.999985 -0.000060 0.000000 -1.057698 0.439764 6.663533 139.999985
11 139.999985 -0.000060 0.000000 -1.099412 0.513034 6.310987 139.999985
[Rope3_Seg09]
10 90.185997 -0.000179 -0.000060 89.793228 -1.359877 -0.847183 90.185997
11 90.185997 -0.000179 -0.000060 89.793228 -1.359877 -0.847183 90.185997
[R_rear_hand01]
10 103.366196 -6.073594 -10.757982 -161.551193 16.666374 -30.088671 104.101845
11 103.366196 -6.073594 -10.757982 -161.551193 16.666374 -30.088671 104.101845
[R_rear_hand02]
10 100.509819 12.039542 -7.992327 -34.280552 19.289745 28.875523 101.543350
11 100.509819 12.039542 -7.992327 -34.280552 19.289745 28.875523 101.543350
[R_rear_hand03]
10 101.539970 5.215704 5.435467 83.366440 -30.933914 7.284830 101.819031
11 101.539970 5.215704 5.435467 83.366440 -30.933914 7.284830 101.819031
[Rope4_Seg01]
10 0.000005 -0.000092 -0.000034 44.746811 5.479872 -117.761932 0.000098
11 0.000003 -0.000089 -0.000038 53.435299 -19.455669 -123.291992 0.000097
[Rope4_Seg02]
10 139.999985 0.000060 0.000119 -1.758438 0.473563 -7.350960 139.999985
11 139.999985 0.000060 0.000119 -12.340981 12.668368 -20.845232 139.999985
[Rope4_Seg03]
10 139.999924 0.000000 -0.000238 0.315222 -3.972079 -1.335547 139.999924
11 139.999924 0.000000 -0.000238 -2.306437 2.226511 -5.606479 139.999924
[Rope4_Seg04]
10 139.999985 0.000000 0.000119 -2.613858 8.375771 -4.337402 139.999985
11 139.999985 0.000000 0.000119 -3.559325 9.598271 -6.173977 139.999985
[Rope4_Seg05]
10 139.999802 -0.000060 -0.000119 -4.339153 27.899145 -11.340100 139.999802
11 139.999802 -0.000060 -0.000119 -5.412147 28.230701 -13.948899 139.999802
[Rope4_Seg06]
10 139.999924 0.000000 0.000060 2.992578 22.027933 -8.320539 139.999924
11 139.999924 0.000000 0.000060 2.744951 22.719801 -10.169765 139.999924
[Rope4_Seg07]
10 139.999802 0.000000 0.000000 5.037308 12.693302 -5.901397 139.999802
11 139.999802 0.000000 0.000000 4.414011 11.186247 -6.074037 139.999802
[Rope4_Seg08]
10 139.999924 0.000000 0.000119 1.486565 5.038653 -2.943413 139.999924
11 139.999924 0.000000 0.000119 1.573933 5.391598 -3.534559 139.999924
[Rope4_Seg09]
10 90.185791 0.000060 0.000060 -135.617828 2.228885 0.850567 90.185791
11 90.185791 0.000060 0.000060 -135.617828 2.228885 0.850567 90.185791
[L_rear_hand01]
10 101.696655 -8.392275 -7.654577 -35.090412 -17.605316 153.690796 102.329041
11 101.696655 -8.392275 -7.654577 -35.090664 -17.605171 153.690781 102.329041
[L_rear_hand02]
10 102.726799 -1.568258 5.773216 83.559532 27.993368 173.103989 102.900848
11 102.726799 -1.568258 5.773216 83.559479 27.993212 173.103836 102.900848
[L_rear_hand03]
10 104.552910 9.721220 -10.420293 -160.739395 -15.710216 -152.828369 105.519653
11 104.552910 9.721220 -10.420293 -160.739365 -15.710179 -152.828583 105.519653
